<?xml version="1.0" encoding="UTF-8"?>
<!DOCTYPE svg PUBLIC "-//W3C//DTD SVG 1.1//EN" "http://www.w3.org/Graphics/SVG/1.1/DTD/svg11.dtd">
<!-- Creator: CorelDRAW 2020 (64-Bit) -->
<svg xmlns="http://www.w3.org/2000/svg" xml:space="preserve" width="401px" height="76px" version="1.1" style="shape-rendering:geometricPrecision; text-rendering:geometricPrecision; image-rendering:optimizeQuality; fill-rule:evenodd; clip-rule:evenodd"
viewBox="0 0 3179000 599000"
 xmlns:xlink="http://www.w3.org/1999/xlink"
 xmlns:xodm="http://www.corel.com/coreldraw/odm/2003">
 <defs>
  <style type="text/css">
   <![CDATA[
    .fil1 {fill:#EE5B32}
    .fil0 {fill:#EE5B32;fill-rule:nonzero}
   ]]>
  </style>
 </defs>
 <g id="Слой_x0020_1">
  <metadata id="CorelCorpID_0Corel-Layer"/>
  <path class="fil0" d="M375000 1000c109000,0 185000,19000 228000,58000 43000,39000 64000,93000 64000,164000 0,48000 -8000,89000 -25000,123000 -17000,34000 -47000,60000 -90000,79000 -43000,19000 -102000,29000 -177000,29000l-172000 0 0 145000 -203000 0c4000,-107000 7000,-207000 7000,-300000 0,-92000 -3000,-192000 -7000,-299000l203000 0 0 1000 172000 0zm-58000 294000c45000,0 80000,-2000 103000,-6000 22000,-3000 38000,-10000 47000,-19000 9000,-10000 14000,-23000 14000,-41000 0,-19000 -4000,-32000 -13000,-41000 -8000,-9000 -24000,-16000 -47000,-19000 -23000,-3000 -57000,-5000 -104000,-5000l-114000 0 0 131000 114000 0z"/>
  <path id="1" class="fil0" d="M935000 432000c159000,-1000 291000,-4000 396000,-8000 -7000,28000 -12000,55000 -13000,81000 -2000,26000 -3000,57000 -3000,94000l-582000 0c5000,-107000 7000,-207000 7000,-300000 0,-92000 -2000,-192000 -7000,-299000l202000 0 0 432000z"/>
  <path id="2" class="fil0" d="M1917000 599000c-10000,-31000 -24000,-71000 -42000,-118000l-263000 0 -41000 118000 -207000 0 231000 -599000 303000 0 233000 599000 -214000 0zm-89000 -247000c-21000,-57000 -42000,-115000 -64000,-173000l-20000 -54000c-19000,50000 -48000,126000 -85000,227000l169000 0z"/>
  <path id="3" class="fil0" d="M2850000 1000c-3000,93000 -5000,192000 -5000,298000 0,107000 2000,207000 5000,300000l-295000 0 -200000 -451000 15000 451000 -212000 0c5000,-107000 7000,-207000 7000,-300000 0,-92000 -2000,-191000 -7000,-298000l304000 0 200000 463000 -14000 -463000 202000 0z"/>
  <circle class="fil1" cx="3061000" cy="310000" r="117000"/>
 </g>
</svg>
